HIERARCHY
ROOT Root
{
  OFFSET 0.0 0.0 0.0
  CHANNELS 6 Xposition Yposition Zposition Zrotation Yrotation Xrotation
  JOINT Hips
  {
    OFFSET 0.0 100.0 0.0
    CHANNELS 6 Xposition Yposition Zposition Zrotation Yrotation Xrotation
    JOINT Spine1
    {
      OFFSET -0.013727 5.003763 -0.053727
      CHANNELS 3 Zrotation Yrotation Xrotation
      JOINT Spine2
      {
        OFFSET -0.0 7.125301 -0.029825
        CHANNELS 3 Zrotation Yrotation Xrotation
        JOINT Chest
        {
          OFFSET -1e-06 7.550063 -0.815971
          CHANNELS 3 Zrotation Yrotation Xrotation
          JOINT Neck1
          {
            OFFSET -0.181677 26.311295 -0.553348
            CHANNELS 3 Zrotation Yrotation Xrotation
            JOINT Neck2
            {
              OFFSET -3e-06 7.709397 2.302585
              CHANNELS 3 Zrotation Yrotation Xrotation
              JOINT Head
              {
                OFFSET -5e-06 6.128916 1.953709
                CHANNELS 3 Zrotation Yrotation Xrotation
                JOINT HeadEnd
                {
                  OFFSET 0.003598 16.065403 -1.835379
                  CHANNELS 3 Zrotation Yrotation Xrotation
                }
                JOINT Jaw
                {
                  OFFSET 0.002637 0.475592 3.094941
                  CHANNELS 3 Zrotation Yrotation Xrotation
                }
                JOINT LeftEye
                {
                  OFFSET 3.206381 5.380205 7.586883
                  CHANNELS 3 Zrotation Yrotation Xrotation
                }
                JOINT RightEye
                {
                  OFFSET -3.22244 5.361869 7.558234
                  CHANNELS 3 Zrotation Yrotation Xrotation
                }
              }
            }
          }
          JOINT LeftShoulder
          {
            OFFSET 1.621652 23.237164 5.113413
            CHANNELS 3 Zrotation Yrotation Xrotation
            JOINT LeftArm
            {
              OFFSET 14.919846 2e-06 -5.502326
              CHANNELS 3 Zrotation Yrotation Xrotation
              JOINT LeftForeArm
              {
                OFFSET 28.739307 0.0 -0.002588
                CHANNELS 3 Zrotation Yrotation Xrotation
                JOINT LeftHand
                {
                  OFFSET 27.093981 -1e-06 0.002609
                  CHANNELS 3 Zrotation Yrotation Xrotation
                  JOINT LeftHandThumb1
                  {
                    OFFSET 2.276482 -1.392045 3.191413
                    CHANNELS 3 Zrotation Yrotation Xrotation
                    JOINT LeftHandThumb2
                    {
                      OFFSET 4.012836 -1.828127 1.641654
                      CHANNELS 3 Zrotation Yrotation Xrotation
                      JOINT LeftHandThumb3
                      {
                        OFFSET 2.798515 0.0 -3e-06
                        CHANNELS 3 Zrotation Yrotation Xrotation
                        JOINT LeftHandThumbEnd
                        {
                          OFFSET 3.180793 -4e-06 4e-06
                          CHANNELS 3 Zrotation Yrotation Xrotation
                        }
                      }
                    }
                  }
                  JOINT LeftHandIndex1
                  {
                    OFFSET 3.247555 -0.531998 2.296169
                    CHANNELS 3 Zrotation Yrotation Xrotation
                    JOINT LeftHandIndex2
                    {
                      OFFSET 6.364578 0.01206 0.1786
                      CHANNELS 3 Zrotation Yrotation Xrotation
                      JOINT LeftHandIndex3
                      {
                        OFFSET 3.662364 0.0 0.0
                        CHANNELS 3 Zrotation Yrotation Xrotation
                        JOINT LeftHandIndex4
                        {
                          OFFSET 2.329242 4e-06 4e-06
                          CHANNELS 3 Zrotation Yrotation Xrotation
                          JOINT LeftHandIndexEnd
                          {
                            OFFSET 2.759615 -0.180537 -0.113024
                            CHANNELS 3 Zrotation Yrotation Xrotation
                          }
                        }
                      }
                    }
                  }
                  JOINT LeftHandMiddle1
                  {
                    OFFSET 3.163495 0.240981 1.000332
                    CHANNELS 3 Zrotation Yrotation Xrotation
                    JOINT LeftHandMiddle2
                    {
                      OFFSET 6.19078 -0.259278 -1.002548
                      CHANNELS 3 Zrotation Yrotation Xrotation
                      JOINT LeftHandMiddle3
                      {
                        OFFSET 4.35652 -4e-06 -1e-06
                        CHANNELS 3 Zrotation Yrotation Xrotation
                        JOINT LeftHandMiddle4
                        {
                          OFFSET 2.996877 -8e-06 0.0
                          CHANNELS 3 Zrotation Yrotation Xrotation
                          JOINT LeftHandMiddleEnd
                          {
                            OFFSET 2.304287 -0.294569 -0.031741
                            CHANNELS 3 Zrotation Yrotation Xrotation
                          }
                        }
                      }
                    }
                  }
                  JOINT LeftHandRing1
                  {
                    OFFSET 2.882643 -0.053652 -0.322543
                    CHANNELS 3 Zrotation Yrotation Xrotation
                    JOINT LeftHandRing2
                    {
                      OFFSET 5.854541 -0.486202 -1.373841
                      CHANNELS 3 Zrotation Yrotation Xrotation
                      JOINT LeftHandRing3
                      {
                        OFFSET 4.350578 0.0 3e-06
                        CHANNELS 3 Zrotation Yrotation Xrotation
                        JOINT LeftHandRing4
                        {
                          OFFSET 2.651321 7e-06 2e-06
                          CHANNELS 3 Zrotation Yrotation Xrotation
                          JOINT LeftHandRingEnd
                          {
                            OFFSET 1.936105 0.077687 -7.1e-05
                            CHANNELS 3 Zrotation Yrotation Xrotation
                          }
                        }
                      }
                    }
                  }
                  JOINT LeftHandPinky1
                  {
                    OFFSET 2.8655 -0.310005 -1.600378
                    CHANNELS 3 Zrotation Yrotation Xrotation
                    JOINT LeftHandPinky2
                    {
                      OFFSET 5.087849 -1.331141 -1.77123
                      CHANNELS 3 Zrotation Yrotation Xrotation
                      JOINT LeftHandPinky3
                      {
                        OFFSET 3.070974 4e-06 0.0
                        CHANNELS 3 Zrotation Yrotation Xrotation
                        JOINT LeftHandPinky4
                        {
                          OFFSET 1.549672 0.0 1e-06
                          CHANNELS 3 Zrotation Yrotation Xrotation
                          JOINT LeftHandPinkyEnd
                          {
                            OFFSET 1.944893 -0.157802 0.057219
                            CHANNELS 3 Zrotation Yrotation Xrotation
                          }
                        }
                      }
                    }
                  }
                }
              }
            }
          }
          JOINT RightShoulder
          {
            OFFSET -1.380118 23.180309 5.214158
            CHANNELS 3 Zrotation Yrotation Xrotation
            JOINT RightArm
            {
              OFFSET -15.037196 1.2e-05 -5.545604
              CHANNELS 3 Zrotation Yrotation Xrotation
              JOINT RightForeArm
              {
                OFFSET -28.736639 2e-06 -0.002597
                CHANNELS 3 Zrotation Yrotation Xrotation
                JOINT RightHand
                {
                  OFFSET -27.133619 -0.0 0.002613
                  CHANNELS 3 Zrotation Yrotation Xrotation
                  JOINT RightHandThumb1
                  {
                    OFFSET -2.274032 -1.383988 3.163127
                    CHANNELS 3 Zrotation Yrotation Xrotation
                    JOINT RightHandThumb2
                    {
                      OFFSET -4.011429 -1.827466 1.640914
                      CHANNELS 3 Zrotation Yrotation Xrotation
                      JOINT RightHandThumb3
                      {
                        OFFSET -2.794935 -4e-06 -3e-06
                        CHANNELS 3 Zrotation Yrotation Xrotation
                        JOINT RightHandThumbEnd
                        {
                          OFFSET -3.183852 4e-06 1e-06
                          CHANNELS 3 Zrotation Yrotation Xrotation
                        }
                      }
                    }
                  }
                  JOINT RightHandIndex1
                  {
                    OFFSET -3.253266 -0.520057 2.282866
                    CHANNELS 3 Zrotation Yrotation Xrotation
                    JOINT RightHandIndex2
                    {
                      OFFSET -6.341917 0.012471 0.178266
                      CHANNELS 3 Zrotation Yrotation Xrotation
                      JOINT RightHandIndex3
                      {
                        OFFSET -3.654871 -8e-06 -0.0
                        CHANNELS 3 Zrotation Yrotation Xrotation
                        JOINT RightHandIndex4
                        {
                          OFFSET -2.327586 0.0 1e-06
                          CHANNELS 3 Zrotation Yrotation Xrotation
                          JOINT RightHandIndexEnd
                          {
                            OFFSET -2.76179 -0.180656 -0.113078
                            CHANNELS 3 Zrotation Yrotation Xrotation
                          }
                        }
                      }
                    }
                  }
                  JOINT RightHandMiddle1
                  {
                    OFFSET -3.168106 0.246593 1.00103
                    CHANNELS 3 Zrotation Yrotation Xrotation
                    JOINT RightHandMiddle2
                    {
                      OFFSET -6.180828 -0.258836 -1.000895
                      CHANNELS 3 Zrotation Yrotation Xrotation
                      JOINT RightHandMiddle3
                      {
                        OFFSET -4.348901 0.0 -0.0
                        CHANNELS 3 Zrotation Yrotation Xrotation
                        JOINT RightHandMiddle4
                        {
                          OFFSET -3.00024 -4e-06 -2e-06
                          CHANNELS 3 Zrotation Yrotation Xrotation
                          JOINT RightHandMiddleEnd
                          {
                            OFFSET -2.30252 -0.29437 -0.031706
                            CHANNELS 3 Zrotation Yrotation Xrotation
                          }
                        }
                      }
                    }
                  }
                  JOINT RightHandRing1
                  {
                    OFFSET -2.88569 -0.067952 -0.308858
                    CHANNELS 3 Zrotation Yrotation Xrotation
                    JOINT RightHandRing2
                    {
                      OFFSET -5.854198 -0.48613 -1.373731
                      CHANNELS 3 Zrotation Yrotation Xrotation
                      JOINT RightHandRing3
                      {
                        OFFSET -4.33881 -4e-06 -0.0
                        CHANNELS 3 Zrotation Yrotation Xrotation
                        JOINT RightHandRing4
                        {
                          OFFSET -2.654903 -4e-06 4e-06
                          CHANNELS 3 Zrotation Yrotation Xrotation
                          JOINT RightHandRingEnd
                          {
                            OFFSET -1.933568 0.077527 -5.2e-05
                            CHANNELS 3 Zrotation Yrotation Xrotation
                          }
                        }
                      }
                    }
                  }
                  JOINT RightHandPinky1
                  {
                    OFFSET -2.866425 -0.342796 -1.584145
                    CHANNELS 3 Zrotation Yrotation Xrotation
                    JOINT RightHandPinky2
                    {
                      OFFSET -5.091371 -1.332055 -1.772385
                      CHANNELS 3 Zrotation Yrotation Xrotation
                      JOINT RightHandPinky3
                      {
                        OFFSET -3.062664 -4e-06 1e-06
                        CHANNELS 3 Zrotation Yrotation Xrotation
                        JOINT RightHandPinky4
                        {
                          OFFSET -1.546529 4e-06 -2e-06
                          CHANNELS 3 Zrotation Yrotation Xrotation
                          JOINT RightHandPinkyEnd
                          {
                            OFFSET -1.945119 -0.157718 0.057211
                            CHANNELS 3 Zrotation Yrotation Xrotation
                          }
                        }
                      }
                    }
                  }
                }
              }
            }
          }
        }
      }
    }
    JOINT LeftLeg
    {
      OFFSET 10.043214 -8.434526 2.595655
      CHANNELS 3 Zrotation Yrotation Xrotation
      JOINT LeftShin
      {
        OFFSET -1e-06 -43.221752 -0.802913
        CHANNELS 3 Zrotation Yrotation Xrotation
        JOINT LeftFoot
        {
          OFFSET 1e-06 -42.155094 -3.481523
          CHANNELS 3 Zrotation Yrotation Xrotation
          JOINT LeftToeBase
          {
            OFFSET 0.0 -5.059472 13.231529
            CHANNELS 3 Zrotation Yrotation Xrotation
            JOINT LeftToeEnd
            {
              OFFSET -0.009607 -1.647619 6.513017
              CHANNELS 3 Zrotation Yrotation Xrotation
            }
          }
        }
      }
    }
    JOINT RightLeg
    {
      OFFSET -10.047278 -8.29526 2.620317
      CHANNELS 3 Zrotation Yrotation Xrotation
      JOINT RightShin
      {
        OFFSET 1e-06 -43.362206 -0.805556
        CHANNELS 3 Zrotation Yrotation Xrotation
        JOINT RightFoot
        {
          OFFSET 2e-06 -42.117393 -3.478398
          CHANNELS 3 Zrotation Yrotation Xrotation
          JOINT RightToeBase
          {
            OFFSET -0.0 -5.079609 13.284196
            CHANNELS 3 Zrotation Yrotation Xrotation
            JOINT RightToeEnd
            {
              OFFSET 0.009532 -1.634378 6.460591
              CHANNELS 3 Zrotation Yrotation Xrotation
            }
          }
        }
      }
    }
  }
}
MOTION
Frames: 4
Frame Time: 0.03333333333333333
0.0 0.0 0.0 0.0 -0.0 0.0 208.279938 84.133896 60.725067 -5.239236 -9.910902 27.217155 4.747182 -0.705126 5.140008 0.1688 -2.571086 -3.026257 1.472822 -5.833634 4.934438 10.747186 0.568759 -0.234504 -1.753046 -5.353961 -3.497847 10.420511 -6.767998 -10.612094 7.7e-05 -2.3e-05 7e-06 -0.00485 0.044784 -0.068268 0.774256 -3.646478 -10.855541 -0.767779 3.731329 -10.790672 14.844897 -19.46969 3.030657 -49.892342 -20.523563 -37.401363 -176.87999 -42.470566 177.81897 2.595213 -1.072426 -25.55711 -5.882111 9.861288 0.702589 -10.936877 -0.360573 7.156208 1e-06 8.774828 1e-06 -15.668254 16.806402 5.917732 -1.844032 2.498503 -2.507278 -10.163604 4.678947 4.62111 -20.976036 -2e-06 0.0 -21.226295 2.451697 -3.594 -0.0 -7e-06 -1e-06 -1.362682 2.2408 -0.746324 -21.334923 0.584913 3.008322 -13.82122 0.0 2e-06 -23.887182 -0.249077 -0.839486 -60.819229 1.879405 -1.603377 -0.294024 1.679687 0.833257 -14.218212 0.093215 1.300581 -34.212067 -0.28756 0.967169 -20.033222 0.964539 1.212842 0.0 0.0 -1e-06 -3.440389 0.788232 0.501657 -15.928194 -3.167308 2.999708 -6.33883 0.0 1e-06 -18.123457 3.648185 -4.905671 -4e-06 0.0 -0.0 -15.718079 11.670059 11.495836 73.336937 -40.555008 43.620785 6.276806 33.381657 5.012317 4.626442 18.291306 -26.448977 2.243544 -5.255041 -3.18016 14.282902 -0.826595 6.952509 -1e-06 -12.69061 -1e-06 17.894306 -15.022369 2.770371 1.665667 -1.955922 -2.8783 4.727802 -4.170588 4.993927 11.020534 2e-06 0.0 12.109058 -3.735719 -2.866784 2e-06 -1e-06 -1e-06 1.291986 -1.92855 -1.49809 14.800136 0.567468 3.86561 14.242578 -1.341737 -6.66066 19.631975 0.143925 -0.648245 51.850986 -0.600211 -4.847982 0.353029 -1.511152 -0.031941 20.222803 3.68431 2.316634 18.787287 4e-06 2e-06 10.751634 -0.479869 1.397909 1e-06 -0.0 1e-06 3.273808 0.305948 -0.58011 21.486826 11.83038 2.266137 8.162933 1e-06 1e-06 18.399094 -3.798988 -4.940579 3e-06 -0.0 -1e-06 31.228168 10.331285 12.942628 0.437885 -5.321152 2.349304 -11.352967 14.361881 41.897114 2.442879 -1.862656 -15.101637 -0.0 -1e-06 3e-06 2.139111 -15.63501 -89.649712 0.094266 0.344243 78.185226 -0.018352 -3.69324 -18.495541 -1.500137 0.850359 -3.282058 0.0 -0.0 -1e-06 
0.0 0.0 0.0 0.0 -0.0 0.0 203.234894 84.195442 68.537285 -5.167726 -13.028751 28.131872 4.772452 -1.446698 4.582653 0.318933 -3.770926 -3.432049 2.007236 -6.859768 4.974537 10.632703 0.599781 -0.612391 -1.474152 -4.198608 -3.561304 7.833035 -5.269478 -11.087875 7.7e-05 -2.4e-05 5e-06 -0.034817 0.141886 -0.073252 0.762027 -3.589406 -10.967846 -0.817219 3.861961 -10.897089 20.932623 -19.944201 1.235746 -49.942783 -26.756653 -39.515026 -177.829056 -38.401676 179.456818 2.481658 5.0452 -21.967672 -5.882108 9.861288 0.702589 -10.936877 -0.360576 7.156211 1e-06 8.774829 -1e-06 -15.477462 17.261761 5.929834 -1.844034 2.498506 -2.507279 -10.163606 4.678946 4.62111 -20.976034 -2e-06 3e-06 -21.226297 2.451698 -3.594003 0.0 -5e-06 -0.0 -1.362682 2.240801 -0.746323 -21.334925 0.58491 3.008327 -13.82122 -2e-06 1e-06 -23.887182 -0.249078 -0.839483 -61.081467 1.91866 -1.700334 -0.294024 1.679688 0.833257 -14.218215 0.093215 1.300584 -34.212067 -0.287564 0.967171 -20.033226 0.964537 1.212845 2e-06 2e-06 0.0 -3.440391 0.788235 0.501657 -15.928198 -3.16731 2.99971 -6.338829 -2e-06 2e-06 -18.123457 3.648183 -4.90567 -4e-06 0.0 -2e-06 -17.991735 10.535783 12.129683 73.48851 -47.385017 46.304291 4.075352 32.460747 5.774992 4.044996 18.784866 -27.06558 2.243541 -5.255038 -3.180159 14.282896 -0.826594 6.952504 -2e-06 -12.69061 -1e-06 18.086828 -15.038277 1.374193 1.665667 -1.955924 -2.878301 4.727799 -4.170588 4.993925 11.020528 3e-06 -2e-06 12.109053 -3.735717 -2.866787 1e-06 0.0 1e-06 1.291986 -1.92855 -1.49809 14.800131 0.567469 3.865608 14.242572 -1.341739 -6.660662 19.631969 0.143926 -0.648246 48.65469 -0.327901 -5.303418 0.353029 -1.511152 -0.03194 20.222792 3.68431 2.316631 18.787273 6e-06 -2e-06 10.751631 -0.479869 1.397907 -1e-06 -0.0 -1e-06 3.273806 0.305946 -0.580111 21.486816 11.830379 2.266136 8.162928 1e-06 -1e-06 18.399084 -3.798985 -4.940577 4e-06 0.0 -0.0 30.949369 11.780692 17.343077 0.450306 -5.670307 -1.429387 -11.157594 12.930337 51.552456 2.497601 -1.932184 -5.742831 -0.0 1e-06 2e-06 4.880663 -14.276586 -92.411308 -0.057402 0.165323 66.9935 0.459765 -6.826956 -15.052112 -1.510049 1.013868 -3.01806 0.0 1e-06 0.0 
0.0 0.0 0.0 0.0 -0.0 0.0 197.312775 83.820427 77.035103 -4.286254 -16.595472 27.086739 4.123282 -2.258733 4.879515 0.285027 -4.924055 -3.588121 1.98759 -7.962238 5.675478 10.816364 0.219391 0.088693 -1.196394 -2.348917 -3.64727 5.539982 -3.0295 -12.883794 7.7e-05 -2.3e-05 5e-06 -0.050734 0.213254 -0.042769 0.76098 -3.569815 -11.027449 -0.852346 3.982145 -10.951503 25.349873 -20.489941 0.457095 -49.891182 -33.161991 -41.346916 -178.513992 -37.985359 -179.529968 4.910467 8.168746 -17.149672 -5.882113 9.861288 0.702591 -10.936881 -0.360572 7.156205 -1e-06 8.774828 -1e-06 -15.659436 17.959869 5.848937 -1.844033 2.498504 -2.507279 -10.163609 4.678946 4.621109 -20.97604 -0.0 2e-06 -21.226303 2.4517 -3.594005 1e-06 -5e-06 -1e-06 -1.362683 2.240801 -0.746323 -21.334932 0.584914 3.008323 -13.821225 -1e-06 0.0 -23.887192 -0.249079 -0.839487 -62.104603 2.137941 -1.947496 -0.294024 1.679686 0.833256 -14.218221 0.09322 1.30058 -34.212074 -0.287561 0.967167 -20.03323 0.964538 1.21284 0.0 -1e-06 -0.0 -3.440391 0.788236 0.501654 -15.928201 -3.167309 2.999707 -6.338833 2e-06 0.0 -18.123463 3.648186 -4.905677 -5e-06 0.0 -0.0 -18.516464 8.735303 13.381871 72.280266 -51.370914 45.759708 0.195625 32.310585 5.665512 3.165664 18.194448 -29.861433 2.243544 -5.255037 -3.180159 14.282897 -0.826597 6.952507 -1e-06 -12.690605 -1e-06 18.18074 -15.184085 1.049018 1.665666 -1.955924 -2.878299 4.727801 -4.170589 4.993925 11.020531 1e-06 -1e-06 12.109056 -3.735719 -2.866783 -1e-06 -1e-06 -1e-06 1.291987 -1.928551 -1.49809 14.800134 0.567466 3.86561 14.242579 -1.341739 -6.660659 19.631975 0.143922 -0.648244 48.607693 -0.419732 -5.556485 0.353029 -1.511151 -0.031941 20.222801 3.684308 2.316634 18.787283 2e-06 0.0 10.751633 -0.479871 1.397907 -0.0 0.0 0.0 3.273807 0.305947 -0.58011 21.486824 11.830376 2.266136 8.162933 1e-06 -1e-06 18.399092 -3.798988 -4.940576 2e-06 1e-06 -1e-06 29.334229 12.763937 21.853315 0.58748 -5.773001 -1.379117 -12.198721 9.756451 56.090378 2.567183 -1.97212 -1.089229 -0.0 -1e-06 2e-06 7.607493 -12.805843 -90.8908 -0.243368 -0.150361 58.709965 1.489749 -10.031849 -15.499636 -1.474181 1.099754 -2.804757 -0.0 -1e-06 -1e-06 
0.0 0.0 0.0 0.0 -0.0 0.0 191.202621 83.723625 85.724243 -3.891906 -20.465984 25.657457 3.323372 -2.713637 5.098726 0.223815 -5.766667 -3.564321 1.898009 -8.875878 7.047643 11.013518 -0.295414 1.168363 -0.975179 -0.276021 -3.632512 3.771352 -0.918875 -14.472944 7.7e-05 -2.3e-05 5e-06 -0.05307 0.24158 -0.044929 0.714121 -3.573732 -11.000452 -0.813393 4.039103 -10.939069 25.646042 -20.70834 0.993607 -50.50103 -38.325806 -41.128124 -177.78035 -39.201771 -179.563416 9.418284 7.512962 -12.997249 -5.882108 9.861289 0.702587 -10.936877 -0.360577 7.156209 0.0 8.77483 -3e-06 -15.344771 18.302362 6.102396 -1.844033 2.498506 -2.507279 -10.163606 4.678944 4.62111 -20.97604 -5e-06 3e-06 -21.226299 2.451696 -3.594002 1e-06 -8e-06 0.0 -1.362683 2.2408 -0.746324 -21.334929 0.584905 3.008323 -13.821223 -4e-06 2e-06 -23.887188 -0.249081 -0.83948 -62.613411 2.309695 -1.965588 -0.294025 1.679688 0.833258 -14.218217 0.093213 1.300582 -34.21207 -0.287566 0.967172 -20.033226 0.964536 1.212846 -1e-06 -2e-06 0.0 -3.440389 0.788232 0.501658 -15.928194 -3.167312 2.99971 -6.33883 0.0 1e-06 -18.123457 3.64818 -4.905675 -4e-06 1e-06 -1e-06 -15.478026 6.921397 14.970907 69.774811 -50.813686 42.111073 -3.026835 33.729919 4.780193 1.399643 18.763912 -33.222446 2.243542 -5.255041 -3.180157 14.2829 -0.826596 6.952506 -1e-06 -12.690612 -1e-06 18.377247 -15.885268 0.878766 1.665666 -1.955922 -2.878299 4.727803 -4.170591 4.993925 11.020534 2e-06 -1e-06 12.109059 -3.73572 -2.866786 -0.0 -0.0 -1e-06 1.291987 -1.92855 -1.498091 14.800139 0.567466 3.865611 14.242582 -1.341741 -6.66066 19.631979 0.143923 -0.648245 49.513981 -0.80547 -5.958767 0.353028 -1.511152 -0.031939 20.222803 3.684311 2.316633 18.787287 2e-06 1e-06 10.751636 -0.47987 1.397907 -0.0 0.0 1e-06 3.273808 0.305947 -0.580111 21.486828 11.830381 2.266139 8.162933 -0.0 -1e-06 18.399092 -3.798988 -4.940579 3e-06 1e-06 -1e-06 26.19348 11.831908 24.035149 0.629645 -5.404645 2.678957 -13.591303 6.942442 55.813988 2.64021 -1.978244 -0.096902 0.0 -0.0 2e-06 10.788175 -11.348517 -86.060966 -0.494885 -0.465492 54.778069 2.196255 -12.120812 -16.558031 -1.49579 1.018124 -3.411973 0.0 0.0 -1e-06 
